<mxfile host="app.diagrams.net" agent="Mozilla/5.0 (X11; Linux x86_64) AppleWebKit/537.36 (KHTML, like Gecko) Chrome/130.0.0.0 Safari/537.36" version="24.8.1">
  <diagram name="Page-1" id="74b105a0-9070-1c63-61bc-23e55f88626e">
    <mxGraphModel dx="3354" dy="1833" grid="1" gridSize="10" guides="1" tooltips="1" connect="1" arrows="1" fold="1" page="1" pageScale="1.5" pageWidth="1169" pageHeight="826" background="none" math="0" shadow="0">
      <root>
        <mxCell id="0" style=";html=1;" />
        <mxCell id="1" style=";html=1;" parent="0" />
        <mxCell id="10b056a9c633e61c-17" style="edgeStyle=orthogonalEdgeStyle;rounded=0;html=1;endArrow=block;endFill=1;jettySize=auto;orthogonalLoop=1;strokeWidth=2;startArrow=none;startFill=0;entryX=0;entryY=0.5;entryDx=0;entryDy=0;" parent="1" source="10b056a9c633e61c-4" target="MM-WsSYvWSYYegvF73xH-1" edge="1">
          <mxGeometry relative="1" as="geometry" />
        </mxCell>
        <mxCell id="10b056a9c633e61c-4" value="Local Network Device&#xa;(TUN/TAP)" style="strokeWidth=2;dashed=0;align=center;fontSize=12;shape=rect;verticalLabelPosition=bottom;verticalAlign=top;fillColor=#c0f5a9" parent="1" vertex="1">
          <mxGeometry x="120" y="240" width="150" height="90" as="geometry" />
        </mxCell>
        <mxCell id="10b056a9c633e61c-30" value="Block Diagram" style="text;strokeColor=none;fillColor=none;html=1;fontSize=24;fontStyle=1;verticalAlign=middle;align=center;" parent="1" vertex="1">
          <mxGeometry x="80" y="40" width="1590" height="40" as="geometry" />
        </mxCell>
        <mxCell id="MM-WsSYvWSYYegvF73xH-1" value="Transport" style="strokeWidth=2;dashed=0;align=center;fontSize=12;shape=rect;verticalLabelPosition=bottom;verticalAlign=top;fillColor=#c0f5a9" vertex="1" parent="1">
          <mxGeometry x="320" y="240" width="150" height="90" as="geometry" />
        </mxCell>
        <mxCell id="MM-WsSYvWSYYegvF73xH-3" value="Router" style="strokeWidth=2;dashed=0;align=center;fontSize=12;shape=rect;verticalLabelPosition=bottom;verticalAlign=top;fillColor=#c0f5a9" vertex="1" parent="1">
          <mxGeometry x="720" y="240" width="150" height="90" as="geometry" />
        </mxCell>
        <mxCell id="MM-WsSYvWSYYegvF73xH-4" value="ConnMgr" style="strokeWidth=2;dashed=0;align=center;fontSize=12;shape=rect;verticalLabelPosition=bottom;verticalAlign=top;fillColor=#c0f5a9" vertex="1" parent="1">
          <mxGeometry x="920" y="240" width="150" height="90" as="geometry" />
        </mxCell>
        <mxCell id="MM-WsSYvWSYYegvF73xH-5" value="Site" style="strokeWidth=2;dashed=0;align=center;fontSize=12;shape=rect;verticalLabelPosition=bottom;verticalAlign=top;fillColor=#c0f5a9" vertex="1" parent="1">
          <mxGeometry x="520" y="240" width="150" height="90" as="geometry" />
        </mxCell>
        <mxCell id="MM-WsSYvWSYYegvF73xH-6" value="network" style="strokeWidth=2;dashed=0;align=center;fontSize=12;shape=rect;verticalLabelPosition=bottom;verticalAlign=top;fillColor=#c0f5a9" vertex="1" parent="1">
          <mxGeometry x="1120" y="240" width="150" height="90" as="geometry" />
        </mxCell>
        <mxCell id="MM-WsSYvWSYYegvF73xH-8" value="Packet&lt;div&gt;&lt;div&gt;Unique ID #&lt;/div&gt;&lt;div&gt;Site #&lt;/div&gt;&lt;/div&gt;&lt;div&gt;Length&lt;/div&gt;&lt;div&gt;Type&lt;/div&gt;" style="rounded=1;whiteSpace=wrap;html=1;" vertex="1" parent="1">
          <mxGeometry x="570" y="1020" width="130" height="140" as="geometry" />
        </mxCell>
        <mxCell id="MM-WsSYvWSYYegvF73xH-7" value="Network Packet" style="rounded=1;whiteSpace=wrap;html=1;" vertex="1" parent="1">
          <mxGeometry x="720" y="1020" width="260" height="140" as="geometry" />
        </mxCell>
        <mxCell id="MM-WsSYvWSYYegvF73xH-9" value="Server" style="strokeWidth=2;dashed=0;align=center;fontSize=12;shape=rect;verticalLabelPosition=bottom;verticalAlign=top;fillColor=#c0f5a9" vertex="1" parent="1">
          <mxGeometry x="1360" y="160" width="150" height="90" as="geometry" />
        </mxCell>
        <mxCell id="MM-WsSYvWSYYegvF73xH-10" value="Client" style="strokeWidth=2;dashed=0;align=center;fontSize=12;shape=rect;verticalLabelPosition=bottom;verticalAlign=top;fillColor=#c0f5a9" vertex="1" parent="1">
          <mxGeometry x="1360" y="350" width="150" height="90" as="geometry" />
        </mxCell>
      </root>
    </mxGraphModel>
  </diagram>
</mxfile>
